<svg width="40" height="40" viewBox="0 0 40 40" fill="none" xmlns="http://www.w3.org/2000/svg">
    <rect width="40" height="40" rx="8" fill="#2979FF"/>
    <path d="M10 12C10 10.8954 10.8954 10 12 10H28C29.1046 10 30 10.8954 30 12V28C30 29.1046 29.1046 30 28 30H12C10.8954 30 10 29.1046 10 28V12Z" fill="white" fill-opacity="0.2"/>
    <path d="M14 20C14 16.6863 16.6863 14 20 14C23.3137 14 26 16.6863 26 20C26 23.3137 23.3137 26 20 26C16.6863 26 14 23.3137 14 20Z" fill="white"/>
    <path d="M20 16C18.3431 16 17 17.3431 17 19C17 20.6569 18.3431 22 20 22C21.6569 22 23 20.6569 23 19C23 17.3431 21.6569 16 20 16Z" fill="#2979FF"/>
    <path d="M28 14C29.1046 14 30 14.8954 30 16V24C30 25.1046 29.1046 26 28 26H26V24H28V16H26V14H28Z" fill="white"/>
    <path d="M12 14C10.8954 14 10 14.8954 10 16V24C10 25.1046 10.8954 26 12 26H14V24H12V16H14V14H12Z" fill="white"/>
</svg>