<svg xmlns="http://www.w3.org/2000/svg" width="16" height="16" viewBox="0 0 16 16">
    <path fill="#6E6E6E" d="M12.5,1 C13.8807119,1 15,2.11928813 15,3.5 L15,12.5 C15,13.8807119 13.8807119,15 12.5,15 L3.5,15 C2.11928813,15 1,13.8807119 1,12.5 L1,3.5 C1,2.11928813 2.11928813,1 3.5,1 L12.5,1 Z M12.5,2 L3.5,2 C2.67157288,2 2,2.67157288 2,3.5 L2,12.5 C2,13.3284271 2.67157288,14 3.5,14 L12.5,14 C13.3284271,14 14,13.3284271 14,12.5 L14,3.5 C14,2.67157288 13.3284271,2 12.5,2 Z M7.85355339,4.14644661 L11.8535534,8.14644661 C12.0488155,8.34170876 12.0488155,8.65829124 11.8535534,8.85355339 L7.85355339,12.8535534 C7.65829124,13.0488155 7.34170876,13.0488155 7.14644661,12.8535534 C6.95118446,12.6582912 6.95118446,12.3417088 7.14644661,12.1464466 L10.2928932,9 L4.5,9 C4.22385763,9 4,8.77614237 4,8.5 C4,8.22385763 4.22385763,8 4.5,8 L10.2928932,8 L7.14644661,4.85355339 C6.95118446,4.65829124 6.95118446,4.34170876 7.14644661,4.14644661 C7.34170876,3.95118446 7.65829124,3.95118446 7.85355339,4.14644661 Z"/>
</svg>