<svg xmlns="http://www.w3.org/2000/svg" width="16" height="16" viewBox="0 0 16 16">
    <path fill="#6E6E6E" d="M10.5,1 C11.3284271,1 12,1.67157288 12,2.5 L12,10.5 C12,11.3284271 11.3284271,12 10.5,12 L9,12 L9,13.5 C9,14.3284271 8.32842712,15 7.5,15 L2.5,15 C1.67157288,15 1,14.3284271 1,13.5 L1,6.5 C1,5.67157288 1.67157288,5 2.5,5 L4,5 L4,2.5 C4,1.67157288 4.67157288,1 5.5,1 L10.5,1 Z M8,5 L5.5,5 C4.67157288,5 4,5.67157288 4,6.5 L4,11 L2.5,11 C2.22385763,11 2,11.2238576 2,11.5 L2,13.5 C2,13.7761424 2.22385763,14 2.5,14 L7.5,14 C7.77614237,14 8,13.7761424 8,13.5 L8,5 Z M10.5,2 L5.5,2 C5.22385763,2 5,2.22385763 5,2.5 L5,10.5 C5,10.7761424 5.22385763,11 5.5,11 L10.5,11 C10.7761424,11 11,10.7761424 11,10.5 L11,2.5 C11,2.22385763 10.7761424,2 10.5,2 Z"/>
</svg>