<svg xmlns="http://www.w3.org/2000/svg" width="16" height="16" viewBox="0 0 16 16">
    <path fill="#6E6E6E" d="M8,1 C11.8659932,1 15,4.13400675 15,8 C15,11.8659932 11.8659932,15 8,15 C4.13400675,15 1,11.8659932 1,8 C1,4.13400675 4.13400675,1 8,1 Z M8,2 C4.6862915,2 2,4.6862915 2,8 C2,11.3137085 4.6862915,14 8,14 C11.3137085,14 14,11.3137085 14,8 C14,4.6862915 11.3137085,2 8,2 Z M8,6 C8.55228475,6 9,6.44771525 9,7 L9,11 C9,11.5522847 8.55228475,12 8,12 C7.44771525,12 7,11.5522847 7,11 L7,7 C7,6.44771525 7.44771525,6 8,6 Z M8,3.5 C8.55228475,3.5 9,3.94771525 9,4.5 C9,5.05228475 8.55228475,5.5 8,5.5 C7.44771525,5.5 7,5.05228475 7,4.5 C7,3.94771525 7.44771525,3.5 8,3.5 Z"/>
</svg>