<svg xmlns="http://www.w3.org/2000/svg" width="16" height="16" viewBox="0 0 16 16">
    <path fill="#6E6E6E" d="M8,1 C11.8659932,1 15,4.13400675 15,8 C15,11.8659932 11.8659932,15 8,15 C4.13400675,15 1,11.8659932 1,8 C1,4.13400675 4.13400675,1 8,1 Z M8,2 C4.6862915,2 2,4.6862915 2,8 C2,11.3137085 4.6862915,14 8,14 C11.3137085,14 14,11.3137085 14,8 C14,4.6862915 11.3137085,2 8,2 Z M8.5,5 C9.32842712,5 10,5.67157288 10,6.5 L10,9.5 C10,10.3284271 9.32842712,11 8.5,11 L5.5,11 C4.67157288,11 4,10.3284271 4,9.5 L4,6.5 C4,5.67157288 4.67157288,5 5.5,5 L8.5,5 Z M11.5,5 C11.7761424,5 12,5.22385763 12,5.5 L12,7.5 C12,7.77614237 11.7761424,8 11.5,8 C11.2238576,8 11,7.77614237 11,7.5 L11,5.5 C11,5.22385763 11.2238576,5 11.5,5 Z M8.5,6 L5.5,6 C5.22385763,6 5,6.22385763 5,6.5 L5,9.5 C5,9.77614237 5.22385763,10 5.5,10 L8.5,10 C8.77614237,10 9,9.77614237 9,9.5 L9,6.5 C9,6.22385763 8.77614237,6 8.5,6 Z"/>
</svg>