<svg xmlns="http://www.w3.org/2000/svg" width="16" height="16" viewBox="0 0 16 16">
    <path fill="#6E6E6E" d="M8,1 C11.8659932,1 15,4.13400675 15,8 C15,11.8659932 11.8659932,15 8,15 C4.13400675,15 1,11.8659932 1,8 C1,4.13400675 4.13400675,1 8,1 Z M8,2 C4.6862915,2 2,4.6862915 2,8 C2,11.3137085 4.6862915,14 8,14 C11.3137085,14 14,11.3137085 14,8 C14,4.6862915 11.3137085,2 8,2 Z M8,10.5 C8.55228475,10.5 9,10.9477153 9,11.5 C9,12.0522847 8.55228475,12.5 8,12.5 C7.44771525,12.5 7,12.0522847 7,11.5 C7,10.9477153 7.44771525,10.5 8,10.5 Z M8,4 C9.1045695,4 10,4.8954305 10,6 C10,6.74005776 9.59748227,7.38140872 9.00070285,7.70955707 L9,7.71 L9,8.5 C9,8.77614237 8.77614237,9 8.5,9 L7.5,9 C7.22385763,9 7,8.77614237 7,8.5 L7,7.5 C7,7.22385763 7.22385763,7 7.5,7 C8.32842712,7 9,6.32842712 9,5.5 C9,5.5 9,5.5 9,5.5 C9,4.67157288 8.32842712,4 7.5,4 C6.67157288,4 6,4.67157288 6,5.5 C6,5.77614237 5.77614237,6 5.5,6 L4.5,6 C4.22385763,6 4,5.77614237 4,5.5 C4,4.11928813 5.11928813,3 6.5,3 L8,3 Z"/>
</svg>